<mxfile host="app.diagrams.net" modified="2023-05-24T15:16:19.913Z" agent="Mozilla/5.0 (Windows NT 10.0; Win64; x64) AppleWebKit/537.36 (KHTML, like Gecko) Chrome/112.0.0.0 Safari/537.36 OPR/98.0.0.0" etag="8XdK7akekPo1trS91z2h" version="21.3.3" type="github">
  <diagram name="PÃ¡gina-1" id="Eg0nnDTw5DwMcXW3-OHr">
    <mxGraphModel dx="933" dy="510" grid="1" gridSize="10" guides="1" tooltips="1" connect="1" arrows="1" fold="1" page="1" pageScale="1" pageWidth="827" pageHeight="1169" math="0" shadow="0">
      <root>
        <mxCell id="0" />
        <mxCell id="1" parent="0" />
        <mxCell id="MPLoVsLuQLaed7wnwtIe-15" style="rounded=0;orthogonalLoop=1;jettySize=auto;html=1;entryX=0;entryY=0.5;entryDx=0;entryDy=0;" edge="1" parent="1" target="MPLoVsLuQLaed7wnwtIe-10">
          <mxGeometry relative="1" as="geometry">
            <mxPoint x="310" y="210" as="sourcePoint" />
          </mxGeometry>
        </mxCell>
        <mxCell id="MPLoVsLuQLaed7wnwtIe-16" style="rounded=0;orthogonalLoop=1;jettySize=auto;html=1;entryX=0;entryY=0.5;entryDx=0;entryDy=0;" edge="1" parent="1" source="MPLoVsLuQLaed7wnwtIe-1" target="MPLoVsLuQLaed7wnwtIe-13">
          <mxGeometry relative="1" as="geometry" />
        </mxCell>
        <mxCell id="MPLoVsLuQLaed7wnwtIe-17" style="rounded=0;orthogonalLoop=1;jettySize=auto;html=1;entryX=0;entryY=0.5;entryDx=0;entryDy=0;" edge="1" parent="1" target="MPLoVsLuQLaed7wnwtIe-12">
          <mxGeometry relative="1" as="geometry">
            <mxPoint x="310" y="240" as="sourcePoint" />
          </mxGeometry>
        </mxCell>
        <mxCell id="MPLoVsLuQLaed7wnwtIe-18" style="rounded=0;orthogonalLoop=1;jettySize=auto;html=1;entryX=0;entryY=0.5;entryDx=0;entryDy=0;" edge="1" parent="1" target="MPLoVsLuQLaed7wnwtIe-11">
          <mxGeometry relative="1" as="geometry">
            <mxPoint x="310" y="230" as="sourcePoint" />
          </mxGeometry>
        </mxCell>
        <mxCell id="MPLoVsLuQLaed7wnwtIe-1" value="Funcionario" style="shape=umlActor;verticalLabelPosition=bottom;verticalAlign=top;html=1;outlineConnect=0;" vertex="1" parent="1">
          <mxGeometry x="250" y="160" width="60" height="120" as="geometry" />
        </mxCell>
        <mxCell id="MPLoVsLuQLaed7wnwtIe-10" value="Adicionar Pet" style="ellipse;whiteSpace=wrap;html=1;" vertex="1" parent="1">
          <mxGeometry x="390" y="120" width="120" height="50" as="geometry" />
        </mxCell>
        <mxCell id="MPLoVsLuQLaed7wnwtIe-11" value="Listar Pets" style="ellipse;whiteSpace=wrap;html=1;" vertex="1" parent="1">
          <mxGeometry x="430" y="190" width="120" height="50" as="geometry" />
        </mxCell>
        <mxCell id="MPLoVsLuQLaed7wnwtIe-12" value="Alterar Pet" style="ellipse;whiteSpace=wrap;html=1;" vertex="1" parent="1">
          <mxGeometry x="430" y="260" width="120" height="50" as="geometry" />
        </mxCell>
        <mxCell id="MPLoVsLuQLaed7wnwtIe-13" value="Excluir Pet" style="ellipse;whiteSpace=wrap;html=1;" vertex="1" parent="1">
          <mxGeometry x="390" y="330" width="120" height="50" as="geometry" />
        </mxCell>
      </root>
    </mxGraphModel>
  </diagram>
</mxfile>
